<svg xmlns="http://www.w3.org/2000/svg" viewBox="0 0 120 120"><rect width="120" height="120" fill="#D6DCE8"/><path d="M18 120 C20 92 38 84 60 84 C82 84 100 92 102 120 Z" fill="#885B44"/><rect x="52" y="68" width="16" height="18" rx="6" fill="#A0693F"/><ellipse cx="60" cy="54" rx="20" ry="23" fill="#A0693F"/><path d="M39 52 C38 32 50 26 60 26 C72 26 83 33 81 52 C76 40 66 36 58 38 C50 40 44 44 39 52 Z" fill="#0F0F0F"/><circle cx="52" cy="55" r="2.2" fill="#2A1A12"/><circle cx="68" cy="55" r="2.2" fill="#2A1A12"/><path d="M53 65 Q60 70 67 65" stroke="#5A2E1E" stroke-width="2" fill="none" stroke-linecap="round"/><circle cx="40" cy="60" r="2" fill="#E7B04A"/><circle cx="80" cy="60" r="2" fill="#E7B04A"/><g fill="none" stroke="#2A1A12" stroke-width="1.6"><circle cx="52" cy="55" r="6"/><circle cx="68" cy="55" r="6"/><path d="M58 55 L62 55"/></g></svg>