<svg xmlns="http://www.w3.org/2000/svg" viewBox="0 0 120 120"><rect width="120" height="120" fill="#E2D6E6"/><path d="M18 120 C20 92 38 84 60 84 C82 84 100 92 102 120 Z" fill="#885B44"/><rect x="52" y="68" width="16" height="18" rx="6" fill="#F1C27D"/><ellipse cx="60" cy="54" rx="20" ry="23" fill="#F1C27D"/><circle cx="60" cy="24" r="10" fill="#4A2C1A"/><path d="M39 52 C38 34 50 29 60 29 C72 29 83 35 81 52 C74 42 48 40 39 52 Z" fill="#4A2C1A"/><circle cx="52" cy="55" r="2.2" fill="#2A1A12"/><circle cx="68" cy="55" r="2.2" fill="#2A1A12"/><path d="M53 65 Q60 70 67 65" stroke="#5A2E1E" stroke-width="2" fill="none" stroke-linecap="round"/></svg>